<svg xmlns="http://www.w3.org/2000/svg" width="256" height="256" viewBox="0 0 1024 1024" shape-rendering="geometricPrecision">
  <defs>
    <!-- Pantone 286C ... 285C -->
    <linearGradient id="pms286to285" x1="0%" y1="0%" x2="100%" y2="100%">
      <stop offset="0%"  stop-color="#0033A0"/>
      <stop offset="100%" stop-color="#0072CE"/>
    </linearGradient>

    <!-- Geometry -->
    <path id="outerS" d="M0 0 C6.70453227 3.93129392 13.45073817 7.78848563 20.203125 11.63671875 C32.52884887 18.66442125 44.82535149 25.74162646 57.11035156 32.84033203 C61.43075873 35.33620306 65.75266423 37.82947247 70.07470703 40.32250977 C72.23987602 41.57147075 74.40491556 42.82065617 76.56982422 44.07006836 C82.03407871 47.22347226 87.49991889 50.37407026 92.96875 53.51953125 C98.38375126 56.63443259 103.79172244 59.76129802 109.19726562 62.89257812 C112.29171613 64.67820927 115.39524035 66.44721381 118.5 68.21484375 C137.0082798 78.83194923 137.0082798 78.83194923 144.328125 86.69921875 C144.89015625 87.25480469 145.4521875 87.81039062 146.03125 88.3828125 C156.26194486 99.15604421 158.94624375 112.68173844 158.63671875 126.95703125 C158.05278091 139.19307308 152.36364112 149.21782081 143.515625 157.51171875 C132.85333771 166.25603173 120.86918087 168.94485285 107.328125 167.69921875 C97.47140121 165.09247588 88.7939018 160.49638387 80.078125 155.32421875 C78.86135154 154.61407749 77.64388724 153.90511876 76.42578125 153.19726562 C73.93343897 151.7469486 71.44472591 150.2907019 68.95898438 148.82910156 C63.43568702 145.58400848 57.87973997 142.39552574 52.328125 139.19921875 C50.18225046 137.95970675 48.0364174 136.72012293 45.890625 135.48046875 C38.46127574 131.19430572 31.01254869 126.94228117 23.56265259 122.69198608 C15.0319053 117.82451068 6.51811444 112.92843091 -1.984375 108.01171875 C-10.98986655 102.80446634 -20.02685258 97.65766159 -29.09716797 92.56420898 C-34.14819777 89.71954285 -39.16852115 86.8306285 -44.16015625 83.8828125 C-45.23765137 83.24738525 -46.31514648 82.61195801 -47.42529297 81.95727539 C-49.48888077 80.7368757 -51.54931774 79.51112612 -53.60595703 78.27905273 C-62.28569246 73.14618841 -70.32679753 68.88849734 -80.671875 70.69921875 C-88.89911422 73.78072972 -96.28961438 78.59640632 -103.66381836 83.30664062 C-111.25808983 88.13943947 -119.04154247 92.64634494 -126.8168335 97.17886353 C-135.88413058 102.46487427 -144.91403476 107.80358972 -153.85839844 113.29638672 C-154.60508789 113.75029785 -155.35177734 114.20420898 -156.12109375 114.671875 C-156.76393311 115.06640869 -157.40677246 115.46094238 -158.0690918 115.86743164 C-159.671875 116.69921875 -159.671875 116.69921875 -161.671875 116.69921875 C-161.671875 117.35921875 -161.671875 118.01921875 -161.671875 118.69921875 C-160.95233643 118.97217773 -160.23279785 119.24513672 -159.49145508 119.52636719 C-156.7184948 120.67982646 -154.1770813 121.99660562 -151.55859375 123.46484375 C-150.57036621 124.01793213 -149.58213867 124.57102051 -148.56396484 125.14086914 C-147.5064502 125.73762451 -146.44893555 126.33437988 -145.359375 126.94921875 C-143.69962646 127.88205688 -143.69962646 127.88205688 -142.00634766 128.83374023 C-133.4724407 133.64579778 -125.00181465 138.56237064 -116.55102539 143.51879883 C-109.83390174 147.45381179 -103.08141412 151.31921158 -96.296875 155.13671875 C-88.16415962 159.71315556 -80.06302803 164.34048796 -71.984375 169.01171875 C-62.93524071 174.24358696 -53.87424065 179.45400537 -44.796875 184.63671875 C-44.21628326 184.9682193 -43.63569153 185.29971985 -43.0375061 185.64126587 C-40.09322413 187.32220545 -37.14871397 189.00274482 -34.20410156 190.68310547 C-28.9413958 193.68655051 -23.68070314 196.6935184 -18.41986084 199.70022583 C-15.50394828 201.36670157 -12.58790502 203.03294857 -9.671875 204.69921875 C-8.50520771 205.36588432 -7.33854104 206.03255099 -6.171875 206.69921875 C-5.594375 207.02921875 -5.016875 207.35921875 -4.421875 207.69921875 C-0.92155457 209.69940186 2.57876587 211.69958496 6.0790863 213.69976807 C6.65683304 214.02990906 7.23457977 214.36005005 7.82983398 214.70019531 C10.1574707 216.03027344 12.48510742 217.36035156 14.81274414 218.69042969 C15.38802353 219.01916077 15.96330292 219.34789185 16.55601501 219.68658447 C18.3031311 220.68493652 20.05024719 221.68328857 21.79736328 222.68164062 C22.37754211 223.01317139 22.95772095 223.34470215 23.55548096 223.6862793 C27.15663147 225.74407959 27.15663147 225.74407959 30.75778198 227.80187988 C31.35720612 228.14440796 31.95663025 228.48693604 32.57421875 228.83984375 C34.37548828 229.86914062 36.17675781 230.8984375 37.97802734 231.92773438 C38.56793457 232.26482422 39.1578418 232.60191406 39.765625 232.94921875 C46.10026042 236.56901042 52.43489583 240.18880208 58.76953125 243.80859375 C60.03458496 244.53139526 60.03458496 244.53139526 61.32519531 245.26879883 C62.98750525 246.21880604 64.64961623 247.16916148 66.31152344 248.11987305 C70.67640078 250.61618959 75.04430201 253.10700263 79.41731262 255.58905029 C87.06958522 259.93267621 94.7062908 264.30236302 102.328125 268.69921875 C103.25979492 269.23498535 104.19146484 269.77075195 105.15136719 270.32275391 C114.88473144 275.95348852 123.38193204 281.65695783 131.328125 289.69921875 C132.18148438 290.54871094 133.03484375 291.39820313 133.9140625 292.2734375 C134.71070313 293.07394531 135.50734375 293.87445312 136.328125 294.69921875 C136.90175781 295.27542969 137.47539063 295.85164063 138.06640625 296.4453125 C153.13334999 312.63386496 159.83364624 335.08734238 159.71630859 356.81640625 C159.72419403 358.65842621 159.72419403 358.65842621 159.73223877 360.53765869 C159.7430685 363.86017949 159.74068839 367.18212881 159.73110151 370.50461578 C159.72341196 374.01073372 159.73057594 377.51683015 159.73526001 381.02294922 C159.74069089 386.90661917 159.73359664 392.7901755 159.71923828 398.67382812 C159.70291687 405.43925777 159.70820729 412.20441601 159.7247175 418.9698391 C159.73840906 424.81829814 159.74021487 430.66667633 159.73240149 436.51514626 C159.72776677 439.99075379 159.72698228 443.46623452 159.73701096 446.9418335 C159.74742856 450.82200354 159.732919 454.70187887 159.71630859 458.58203125 C159.72238129 459.70659729 159.72845398 460.83116333 159.73471069 461.98980713 C159.56058242 484.13850852 150.94122074 503.16253294 135.328125 518.69921875 C126.17131204 527.67519698 114.77863873 533.51110834 103.70947266 539.78271484 C100.30960816 541.70971386 96.9175317 543.64978376 93.52734375 545.59375 C85.87080017 549.98151139 78.20405122 554.35127005 70.53662109 558.7199707 C56.74204428 566.58028383 42.96492573 574.46659208 29.26025391 582.4831543 C19.84071197 587.99179978 10.39012692 593.44578299 0.93359375 598.890625 C-3.54868903 601.47201997 -8.02454635 604.06411781 -12.49609375 606.6640625 C-18.87280314 610.36930495 -25.26661764 614.04358309 -31.671875 617.69921875 C-32.51137695 618.18213379 -33.35087891 618.66504883 -34.21582031 619.16259766 C-43.837778 624.66458974 -52.77662691 628.44502949 -63.671875 630.69921875 C-64.48527344 630.88871094 -65.29867187 631.07820312 -66.13671875 631.2734375 C-87.64201454 634.88526684 -107.4019317 626.24648038 -125.359375 615.26171875 C-127.7326334 613.82824772 -130.11007304 612.40180332 -132.48828125 610.9765625 C-133.38495514 610.43817749 -133.38495514 610.43817749 -134.29974365 609.88891602 C-140.39519698 606.24148968 -146.58588171 602.77068489 -152.796875 599.32421875 C-160.23785477 595.18964012 -167.63331091 591.00272028 -174.9519043 586.65551758 C-181.62855551 582.69995257 -188.36771683 578.85497614 -195.109375 575.01171875 C-204.31112009 569.76527365 -213.50119049 564.49988001 -222.671875 559.19921875 C-231.20305569 554.26900508 -239.74748323 549.36291641 -248.3053894 544.47930908 C-250.09427628 543.45784024 -251.88235809 542.43497702 -253.67016602 541.41162109 C-258.83751421 538.45480012 -264.00808358 535.5055845 -269.203125 532.59765625 C-286.85125073 522.66524046 -299.7980497 513.22051815 -307.78515625 494.0234375 C-311.00621279 481.94802291 -309.90854901 467.54890712 -303.671875 456.69921875 C-295.97360231 444.63119482 -285.35031422 438.36882855 -271.671875 434.94921875 C-258.17486323 433.82446777 -247.17656622 436.23960976 -235.421875 443.01171875 C-234.01760254 443.79905396 -234.01760254 443.79905396 -232.58496094 444.60229492 C-229.6030194 446.28291322 -226.63566185 447.98680857 -223.671875 449.69921875 C-222.22361328 450.53453125 -222.22361328 450.53453125 -220.74609375 451.38671875 C-215.78201768 454.25750973 -210.83079752 457.14960898 -205.88671875 460.0546875 C-199.43757622 463.84305946 -192.96416391 467.58855841 -186.484375 471.32421875 C-185.39157227 471.95432861 -184.29876953 472.58443848 -183.17285156 473.23364258 C-176.51399293 477.06981084 -169.84654212 480.89063389 -163.171875 484.69921875 C-155.39048651 489.1393021 -147.6206435 493.59905198 -139.859375 498.07421875 C-138.77035889 498.70207275 -137.68134277 499.32992676 -136.55932617 499.97680664 C-130.04575846 503.73717218 -123.54932495 507.52550575 -117.0625 511.33178711 C-99.1675706 523.27106396 -99.1675706 523.27106396 -79.171875 529.01171875 C-77.73328125 529.06779297 -77.73328125 529.06779297 -76.265625 529.125 C-66.07458199 527.91758295 -57.58016014 522.58978205 -48.984375 517.32421875 C-47.81591948 516.61797848 -46.6467994 515.91283667 -45.47705078 515.20874023 C-43.67800601 514.12584198 -41.87932574 513.04240241 -40.08270264 511.95549011 C-32.75281281 507.52422277 -25.33593627 503.24431256 -17.9230957 498.95361328 C-16.51096802 498.13352783 -16.51096802 498.13352783 -15.0703125 497.296875 C-14.24192871 496.81742432 -13.41354492 496.33797363 -12.56005859 495.84399414 C-10.7305511 494.83724916 -10.7305511 494.83724916 -9.671875 493.69921875 C-10.7556543 493.08216064 -10.7556543 493.08216064 -11.86132812 492.45263672 C-24.49639183 485.25512017 -37.12366063 478.04748384 -49.671875 470.69921875 C-58.30683165 465.64288194 -66.97785927 460.65300634 -75.671875 455.69921875 C-85.34668719 450.1865804 -94.98469637 444.61497308 -104.59375 438.98828125 C-112.25761474 434.5075561 -119.95873335 430.09427651 -127.671875 425.69921875 C-137.39312006 420.15935942 -147.08082368 414.56546943 -156.73876953 408.91577148 C-167.26272125 402.76155133 -177.82567637 396.67551879 -188.38964844 390.59033203 C-194.8954711 386.84188645 -201.39831583 383.08827694 -207.90161133 379.33544922 C-214.56010719 375.49341018 -221.22071229 371.65505709 -227.88256836 367.81884766 C-231.16053725 365.92928208 -234.43600095 364.03544016 -237.7109375 362.140625 C-241.36323805 360.02763268 -245.0230915 357.92971587 -248.6953125 355.8515625 C-256.99824402 351.12284701 -264.60294703 346.20139594 -271.671875 339.69921875 C-272.45256348 338.98209717 -272.45256348 338.98209717 -273.24902344 338.25048828 C-288.29457669 324.26827179 -299.34038727 307.2154723 -306.046875 287.76171875 C-306.38658325 286.79939331 -306.38658325 286.79939331 -306.7331543 285.81762695 C-312.28637633 268.54441435 -312.10486548 250.79040434 -312.03515625 232.8515625 C-312.03463622 230.18273838 -312.03510794 227.51393009 -312.03666687 224.84510803 C-312.0375432 219.28039433 -312.02660869 213.71580397 -312.00805664 208.15112305 C-311.98688886 201.76629653 -311.98338545 195.38165012 -311.9896186 188.99679559 C-311.99536168 182.79032125 -311.98960966 176.58390873 -311.97844505 170.37744331 C-311.97462951 167.76508394 -311.97342948 165.15271925 -311.9750309 162.54035759 C-311.97797561 133.82297181 -310.85171952 105.80865583 -289.4375 84.3359375 C-281.16383471 76.44790916 -272.16480879 70.81479455 -262.28759766 65.19189453 C-259.44403807 63.56920242 -256.61010828 61.93052435 -253.77734375 60.2890625 C-241.80139113 53.35356882 -229.79143516 46.47874088 -217.7696228 39.62322998 C-208.73022438 34.46678594 -199.72991767 29.24648868 -190.74951172 23.98803711 C-183.08585058 19.50732371 -175.38486436 15.09417634 -167.671875 10.69921875 C-158.79191205 5.63883672 -149.93433399 0.54268252 -141.109375 -4.61328125 C-139.63694336 -5.47083008 -139.63694336 -5.47083008 -138.13476562 -6.34570312 C-133.57770091 -9.00271396 -129.03443645 -11.6781501 -124.51953125 -14.40625 C-114.8597615 -20.20230364 -105.42595643 -24.90023267 -94.671875 -28.30078125 C-93.89328125 -28.56503906 -93.1146875 -28.82929688 -92.3125 -29.1015625 C-59.13654594 -38.55285174 -26.94667148 -15.82537827 0 0 Z"/>
    <path id="innerB" d="M0 0 C3.61639284 1.41283723 6.90350029 2.99445287 10.26171875 4.94921875 C11.28458984 5.5421875 12.30746094 6.13515625 13.36132812 6.74609375 C14.45896484 7.38675781 15.55660156 8.02742188 16.6875 8.6875 C17.84940348 9.3623338 19.01151671 10.03680656 20.17382812 10.7109375 C22.5872404 12.11107089 24.9997446 13.51275019 27.41162109 14.91552734 C32.93267051 18.12491257 38.46698832 21.31129902 44 24.5 C46.16934422 25.75117486 48.33861484 27.00247732 50.5078125 28.25390625 C51.58063477 28.87281738 52.65345703 29.49172852 53.75878906 30.12939453 C56.98301005 31.99019456 60.20644874 33.85234291 63.4296875 35.71484375 C75.23629484 42.53502637 87.06027 49.3232326 98.90472412 56.07736206 C107.94471708 61.23416608 116.94525321 66.45543769 125.92675781 71.71337891 C133.54905778 76.16916344 141.20531311 80.56397146 148.875 84.9375 C163.34950369 93.19165636 177.78221846 101.51717372 192.20898438 109.85449219 C195.43068275 111.71602672 198.65271079 113.57698839 201.875 115.4375 C202.94105469 116.05302734 204.00710938 116.66855469 205.10546875 117.30273438 C213.68995597 122.25453042 222.29580293 127.16824868 230.90472412 132.07736206 C239.93106933 137.22638081 248.92584236 142.42690558 257.8828125 147.69580078 C263.38859014 150.92621276 268.92695154 154.08555399 274.5078125 157.18359375 C276.4224652 158.25322517 278.33655103 159.32386439 280.25048828 160.39477539 C281.48269438 161.08020809 282.71766135 161.76070515 283.95556641 162.43579102 C292.21631804 166.94175839 299.15835679 171.11460295 303 180 C303.32347841 183.02726969 303.51987578 185.96292562 303.625 189 C303.66294678 189.94883057 303.70089355 190.89766113 303.73999023 191.87524414 C304.35342798 210.23525499 304.07933187 228.63284221 304 247 C303.14092041 246.50661133 302.28184082 246.01322266 301.39672852 245.50488281 C293.28096607 240.85116493 285.12557942 236.27558099 276.9375 231.75 C259.89338848 222.30775844 243.01241393 212.59022385 226.13989258 202.84545898 C214.62515004 196.19861447 203.07973317 189.60578095 191.53222656 183.01611328 C186.26905722 180.01240368 181.00791262 177.00515108 175.74661255 173.99816895 C174.00163661 173.0009353 172.25657074 172.00385924 170.51147461 171.00683594 C165.21411684 167.98023746 159.91712741 164.95300151 154.6217041 161.92301941 C151.64384696 160.21914416 148.66574097 158.51570426 145.6875 156.8125 C144.81016205 156.31074753 144.81016205 156.31074753 143.9151001 155.79885864 C136.08226887 151.32033911 128.23532468 146.86759182 120.375 142.4375 C111.10928852 137.21486088 101.89353605 131.90880179 92.68652344 126.58349609 C85.6868386 122.53897965 78.66740784 118.53212575 71.625 114.5625 C60.13749302 108.08583136 48.67397656 101.56851341 37.23959351 94.99856567 C33.20451593 92.68273495 29.15362163 90.39631446 25.09765625 88.1171875 C22.93987863 86.89102181 20.78231647 85.66447686 18.625 84.4375 C17.63894775 83.89037354 16.65289551 83.34324707 15.63696289 82.77954102 C8.26300529 78.55449405 2.77599402 74.24607631 0 66 C-0.24050903 62.89311218 -0.24050903 62.89311218 -0.22705078 59.3737793 C-0.22734283 58.72931351 -0.22763489 58.08484772 -0.22793579 57.42085266 C-0.22655005 55.30516779 -0.21102507 53.18984158 -0.1953125 51.07421875 C-0.19157967 49.60163058 -0.18873397 48.12903991 -0.18673706 46.65644836 C-0.17912183 42.79142328 -0.15949163 38.92654987 -0.1373291 35.06158447 C-0.11682508 31.11334281 -0.10772562 27.1650765 -0.09765625 23.21679688 C-0.0762436 15.47779563 -0.04213333 7.73891912 0 0 Z"/>

    <!-- Mask: white = outerS, black = .. innerB -->
    <mask id="cut" maskUnits="userSpaceOnUse" maskContentUnits="userSpaceOnUse">
      <use href="#outerS" transform="translate(586.671875,227.30078125)" fill="#ffffff"/>
      <use href="#innerB" transform="translate(359,418)" fill="#000000"/>
    </mask>
  </defs>

  <!-- Gradient + Mask = S \ innerB. Background SVG — transparent. -->
  <rect width="1024" height="1024" fill="url(#pms286to285)" mask="url(#cut)"/>
</svg>
